# xmcd
#
# Track frame offsets: 
#        150
#        10850
#        26546
#        45051
#        56062
#        58636
#        70525
#        84730
#        99087
#        117225
#        137014
#        150002
#        175983
#
# Disc length: 3121 seconds
#
# Revision: 0
# Processed by: cddbd v1.5.1PL2 Copyright (c) Steve Scherf et al.
# Submitted via: ExactAudioCopy v0.95b3
#
DISCID=900c2f0d
DTITLE=Pezet - Noon - Muzyka Powa¿na [Embargo Nagrania]
DYEAR=2005
DGENRE=Rap
TTITLE0=To tylko ja
TTITLE1=Re-fleksje
TTITLE2=5-10-15 (g. Mes)
TTITLE3=Bez twarzy
TTITLE4=Seniorita skit
TTITLE5=Seniorita
TTITLE6=Slang
TTITLE7=Zimnafuzja (g. Fokus)
TTITLE8=Rap robiê (g. Eldo, Ma³olat)
TTITLE9=Te same dni, te same sny (g. Ash)
TTITLE10=Mantra (2002) bonus track
TTITLE11=Siedem dni (2005) bonus track
TTITLE12=klip
EXTD=
EXTT0=
EXTT1=
EXTT2=
EXTT3=
EXTT4=
EXTT5=
EXTT6=
EXTT7=
EXTT8=
EXTT9=
EXTT10=
EXTT11=
EXTT12=
PLAYORDER=
